<mxfile host="app.diagrams.net" modified="2023-08-24T16:20:24.966Z" agent="Mozilla/5.0 (Windows NT 10.0; Win64; x64) AppleWebKit/537.36 (KHTML, like Gecko) Chrome/115.0.0.0 Safari/537.36 Edg/115.0.1901.203" version="21.6.9" etag="rs2Qvsd2xae1LWgT4Cbc" type="github">
  <diagram name="Page-1" id="Ats74aTDAlP0h83eOr1O">
    <mxGraphModel>
      <root>
        <mxCell id="0" />
        <mxCell id="1" parent="0" />
      </root>
    </mxGraphModel>
  </diagram>
</mxfile>
